%TF.GenerationSoftware,KiCad,Pcbnew,6.0.2+dfsg-1*%
%TF.CreationDate,2022-10-05T13:12:57-04:00*%
%TF.ProjectId,overnight-sensations,6f766572-6e69-4676-9874-2d73656e7361,rev?*%
%TF.SameCoordinates,Original*%
%TF.FileFunction,Legend,Top*%
%TF.FilePolarity,Positive*%
%FSLAX46Y46*%
G04 Gerber Fmt 4.6, Leading zero omitted, Abs format (unit mm)*
G04 Created by KiCad (PCBNEW 6.0.2+dfsg-1) date 2022-10-05 13:12:57*
%MOMM*%
%LPD*%
G01*
G04 APERTURE LIST*
%ADD10C,0.150000*%
%ADD11C,0.120000*%
G04 APERTURE END LIST*
D10*
%TO.C,C2*%
X228433333Y-117197142D02*
X228385714Y-117244761D01*
X228242857Y-117292380D01*
X228147619Y-117292380D01*
X228004761Y-117244761D01*
X227909523Y-117149523D01*
X227861904Y-117054285D01*
X227814285Y-116863809D01*
X227814285Y-116720952D01*
X227861904Y-116530476D01*
X227909523Y-116435238D01*
X228004761Y-116340000D01*
X228147619Y-116292380D01*
X228242857Y-116292380D01*
X228385714Y-116340000D01*
X228433333Y-116387619D01*
X228814285Y-116387619D02*
X228861904Y-116340000D01*
X228957142Y-116292380D01*
X229195238Y-116292380D01*
X229290476Y-116340000D01*
X229338095Y-116387619D01*
X229385714Y-116482857D01*
X229385714Y-116578095D01*
X229338095Y-116720952D01*
X228766666Y-117292380D01*
X229385714Y-117292380D01*
%TO.C,Input1*%
X245652380Y-88479047D02*
X244652380Y-88479047D01*
X244985714Y-88002857D02*
X245652380Y-88002857D01*
X245080952Y-88002857D02*
X245033333Y-87955238D01*
X244985714Y-87860000D01*
X244985714Y-87717142D01*
X245033333Y-87621904D01*
X245128571Y-87574285D01*
X245652380Y-87574285D01*
X244985714Y-87098095D02*
X245985714Y-87098095D01*
X245033333Y-87098095D02*
X244985714Y-87002857D01*
X244985714Y-86812380D01*
X245033333Y-86717142D01*
X245080952Y-86669523D01*
X245176190Y-86621904D01*
X245461904Y-86621904D01*
X245557142Y-86669523D01*
X245604761Y-86717142D01*
X245652380Y-86812380D01*
X245652380Y-87002857D01*
X245604761Y-87098095D01*
X244985714Y-85764761D02*
X245652380Y-85764761D01*
X244985714Y-86193333D02*
X245509523Y-86193333D01*
X245604761Y-86145714D01*
X245652380Y-86050476D01*
X245652380Y-85907619D01*
X245604761Y-85812380D01*
X245557142Y-85764761D01*
X244985714Y-85431428D02*
X244985714Y-85050476D01*
X244652380Y-85288571D02*
X245509523Y-85288571D01*
X245604761Y-85240952D01*
X245652380Y-85145714D01*
X245652380Y-85050476D01*
X245652380Y-84193333D02*
X245652380Y-84764761D01*
X245652380Y-84479047D02*
X244652380Y-84479047D01*
X244795238Y-84574285D01*
X244890476Y-84669523D01*
X244938095Y-84764761D01*
%TO.C,Tweeter1*%
X151773333Y-64132380D02*
X152344761Y-64132380D01*
X152059047Y-65132380D02*
X152059047Y-64132380D01*
X152582857Y-64465714D02*
X152773333Y-65132380D01*
X152963809Y-64656190D01*
X153154285Y-65132380D01*
X153344761Y-64465714D01*
X154106666Y-65084761D02*
X154011428Y-65132380D01*
X153820952Y-65132380D01*
X153725714Y-65084761D01*
X153678095Y-64989523D01*
X153678095Y-64608571D01*
X153725714Y-64513333D01*
X153820952Y-64465714D01*
X154011428Y-64465714D01*
X154106666Y-64513333D01*
X154154285Y-64608571D01*
X154154285Y-64703809D01*
X153678095Y-64799047D01*
X154963809Y-65084761D02*
X154868571Y-65132380D01*
X154678095Y-65132380D01*
X154582857Y-65084761D01*
X154535238Y-64989523D01*
X154535238Y-64608571D01*
X154582857Y-64513333D01*
X154678095Y-64465714D01*
X154868571Y-64465714D01*
X154963809Y-64513333D01*
X155011428Y-64608571D01*
X155011428Y-64703809D01*
X154535238Y-64799047D01*
X155297142Y-64465714D02*
X155678095Y-64465714D01*
X155440000Y-64132380D02*
X155440000Y-64989523D01*
X155487619Y-65084761D01*
X155582857Y-65132380D01*
X155678095Y-65132380D01*
X156392380Y-65084761D02*
X156297142Y-65132380D01*
X156106666Y-65132380D01*
X156011428Y-65084761D01*
X155963809Y-64989523D01*
X155963809Y-64608571D01*
X156011428Y-64513333D01*
X156106666Y-64465714D01*
X156297142Y-64465714D01*
X156392380Y-64513333D01*
X156440000Y-64608571D01*
X156440000Y-64703809D01*
X155963809Y-64799047D01*
X156868571Y-65132380D02*
X156868571Y-64465714D01*
X156868571Y-64656190D02*
X156916190Y-64560952D01*
X156963809Y-64513333D01*
X157059047Y-64465714D01*
X157154285Y-64465714D01*
X158011428Y-65132380D02*
X157440000Y-65132380D01*
X157725714Y-65132380D02*
X157725714Y-64132380D01*
X157630476Y-64275238D01*
X157535238Y-64370476D01*
X157440000Y-64418095D01*
%TO.C,C4*%
X210653333Y-47657142D02*
X210605714Y-47704761D01*
X210462857Y-47752380D01*
X210367619Y-47752380D01*
X210224761Y-47704761D01*
X210129523Y-47609523D01*
X210081904Y-47514285D01*
X210034285Y-47323809D01*
X210034285Y-47180952D01*
X210081904Y-46990476D01*
X210129523Y-46895238D01*
X210224761Y-46800000D01*
X210367619Y-46752380D01*
X210462857Y-46752380D01*
X210605714Y-46800000D01*
X210653333Y-46847619D01*
X211510476Y-47085714D02*
X211510476Y-47752380D01*
X211272380Y-46704761D02*
X211034285Y-47419047D01*
X211653333Y-47419047D01*
%TO.C,R1*%
X172553333Y-99762380D02*
X172220000Y-99286190D01*
X171981904Y-99762380D02*
X171981904Y-98762380D01*
X172362857Y-98762380D01*
X172458095Y-98810000D01*
X172505714Y-98857619D01*
X172553333Y-98952857D01*
X172553333Y-99095714D01*
X172505714Y-99190952D01*
X172458095Y-99238571D01*
X172362857Y-99286190D01*
X171981904Y-99286190D01*
X173505714Y-99762380D02*
X172934285Y-99762380D01*
X173220000Y-99762380D02*
X173220000Y-98762380D01*
X173124761Y-98905238D01*
X173029523Y-99000476D01*
X172934285Y-99048095D01*
%TO.C,Woofer1*%
X167346666Y-64132380D02*
X167584761Y-65132380D01*
X167775238Y-64418095D01*
X167965714Y-65132380D01*
X168203809Y-64132380D01*
X168727619Y-65132380D02*
X168632380Y-65084761D01*
X168584761Y-65037142D01*
X168537142Y-64941904D01*
X168537142Y-64656190D01*
X168584761Y-64560952D01*
X168632380Y-64513333D01*
X168727619Y-64465714D01*
X168870476Y-64465714D01*
X168965714Y-64513333D01*
X169013333Y-64560952D01*
X169060952Y-64656190D01*
X169060952Y-64941904D01*
X169013333Y-65037142D01*
X168965714Y-65084761D01*
X168870476Y-65132380D01*
X168727619Y-65132380D01*
X169632380Y-65132380D02*
X169537142Y-65084761D01*
X169489523Y-65037142D01*
X169441904Y-64941904D01*
X169441904Y-64656190D01*
X169489523Y-64560952D01*
X169537142Y-64513333D01*
X169632380Y-64465714D01*
X169775238Y-64465714D01*
X169870476Y-64513333D01*
X169918095Y-64560952D01*
X169965714Y-64656190D01*
X169965714Y-64941904D01*
X169918095Y-65037142D01*
X169870476Y-65084761D01*
X169775238Y-65132380D01*
X169632380Y-65132380D01*
X170251428Y-64465714D02*
X170632380Y-64465714D01*
X170394285Y-65132380D02*
X170394285Y-64275238D01*
X170441904Y-64180000D01*
X170537142Y-64132380D01*
X170632380Y-64132380D01*
X171346666Y-65084761D02*
X171251428Y-65132380D01*
X171060952Y-65132380D01*
X170965714Y-65084761D01*
X170918095Y-64989523D01*
X170918095Y-64608571D01*
X170965714Y-64513333D01*
X171060952Y-64465714D01*
X171251428Y-64465714D01*
X171346666Y-64513333D01*
X171394285Y-64608571D01*
X171394285Y-64703809D01*
X170918095Y-64799047D01*
X171822857Y-65132380D02*
X171822857Y-64465714D01*
X171822857Y-64656190D02*
X171870476Y-64560952D01*
X171918095Y-64513333D01*
X172013333Y-64465714D01*
X172108571Y-64465714D01*
X172965714Y-65132380D02*
X172394285Y-65132380D01*
X172680000Y-65132380D02*
X172680000Y-64132380D01*
X172584761Y-64275238D01*
X172489523Y-64370476D01*
X172394285Y-64418095D01*
%TO.C,C3*%
X180173333Y-117197142D02*
X180125714Y-117244761D01*
X179982857Y-117292380D01*
X179887619Y-117292380D01*
X179744761Y-117244761D01*
X179649523Y-117149523D01*
X179601904Y-117054285D01*
X179554285Y-116863809D01*
X179554285Y-116720952D01*
X179601904Y-116530476D01*
X179649523Y-116435238D01*
X179744761Y-116340000D01*
X179887619Y-116292380D01*
X179982857Y-116292380D01*
X180125714Y-116340000D01*
X180173333Y-116387619D01*
X180506666Y-116292380D02*
X181125714Y-116292380D01*
X180792380Y-116673333D01*
X180935238Y-116673333D01*
X181030476Y-116720952D01*
X181078095Y-116768571D01*
X181125714Y-116863809D01*
X181125714Y-117101904D01*
X181078095Y-117197142D01*
X181030476Y-117244761D01*
X180935238Y-117292380D01*
X180649523Y-117292380D01*
X180554285Y-117244761D01*
X180506666Y-117197142D01*
%TO.C,C1*%
X241867142Y-63666666D02*
X241914761Y-63714285D01*
X241962380Y-63857142D01*
X241962380Y-63952380D01*
X241914761Y-64095238D01*
X241819523Y-64190476D01*
X241724285Y-64238095D01*
X241533809Y-64285714D01*
X241390952Y-64285714D01*
X241200476Y-64238095D01*
X241105238Y-64190476D01*
X241010000Y-64095238D01*
X240962380Y-63952380D01*
X240962380Y-63857142D01*
X241010000Y-63714285D01*
X241057619Y-63666666D01*
X241962380Y-62714285D02*
X241962380Y-63285714D01*
X241962380Y-63000000D02*
X240962380Y-63000000D01*
X241105238Y-63095238D01*
X241200476Y-63190476D01*
X241248095Y-63285714D01*
%TO.C,L1*%
X182713333Y-96607380D02*
X182237142Y-96607380D01*
X182237142Y-95607380D01*
X183570476Y-96607380D02*
X182999047Y-96607380D01*
X183284761Y-96607380D02*
X183284761Y-95607380D01*
X183189523Y-95750238D01*
X183094285Y-95845476D01*
X182999047Y-95893095D01*
%TO.C,L2*%
X224873333Y-116632380D02*
X224397142Y-116632380D01*
X224397142Y-115632380D01*
X225159047Y-115727619D02*
X225206666Y-115680000D01*
X225301904Y-115632380D01*
X225540000Y-115632380D01*
X225635238Y-115680000D01*
X225682857Y-115727619D01*
X225730476Y-115822857D01*
X225730476Y-115918095D01*
X225682857Y-116060952D01*
X225111428Y-116632380D01*
X225730476Y-116632380D01*
%TO.C,R2*%
X142442380Y-94146666D02*
X141966190Y-94480000D01*
X142442380Y-94718095D02*
X141442380Y-94718095D01*
X141442380Y-94337142D01*
X141490000Y-94241904D01*
X141537619Y-94194285D01*
X141632857Y-94146666D01*
X141775714Y-94146666D01*
X141870952Y-94194285D01*
X141918571Y-94241904D01*
X141966190Y-94337142D01*
X141966190Y-94718095D01*
X141537619Y-93765714D02*
X141490000Y-93718095D01*
X141442380Y-93622857D01*
X141442380Y-93384761D01*
X141490000Y-93289523D01*
X141537619Y-93241904D01*
X141632857Y-93194285D01*
X141728095Y-93194285D01*
X141870952Y-93241904D01*
X142442380Y-93813333D01*
X142442380Y-93194285D01*
D11*
%TO.C,C2*%
X209980000Y-117840000D02*
X211780000Y-117840000D01*
X211780000Y-117840000D02*
X212680000Y-118740000D01*
X247220000Y-117840000D02*
X247220000Y-131080000D01*
X208540000Y-124460000D02*
X209980000Y-124460000D01*
X212680000Y-118740000D02*
X213580000Y-117840000D01*
X248660000Y-124460000D02*
X247220000Y-124460000D01*
X211780000Y-131080000D02*
X212680000Y-130180000D01*
X209980000Y-117840000D02*
X209980000Y-131080000D01*
X213580000Y-131080000D02*
X247220000Y-131080000D01*
X208780000Y-120960000D02*
X208780000Y-122760000D01*
X207880000Y-121860000D02*
X209680000Y-121860000D01*
X212680000Y-130180000D02*
X213580000Y-131080000D01*
X209980000Y-131080000D02*
X211780000Y-131080000D01*
X213580000Y-117840000D02*
X247220000Y-117840000D01*
%TO.C,Input1*%
X254060000Y-91500000D02*
X254060000Y-81220000D01*
X252483000Y-85047000D02*
X252529000Y-85094000D01*
X246199000Y-81220000D02*
X256120000Y-81220000D01*
X256120000Y-91500000D02*
X256120000Y-81220000D01*
X250391000Y-82545000D02*
X250437000Y-82592000D01*
X246199000Y-91500000D02*
X246199000Y-81220000D01*
X255620000Y-91740000D02*
X256360000Y-91740000D01*
X246199000Y-91500000D02*
X256120000Y-91500000D01*
X250185000Y-82750000D02*
X250221000Y-82785000D01*
X252699000Y-84854000D02*
X252734000Y-84889000D01*
X256360000Y-91740000D02*
X256360000Y-91240000D01*
X255560000Y-91500000D02*
X255560000Y-81220000D01*
X249159000Y-91500000D02*
X249159000Y-81220000D01*
X252144000Y-87365000D02*
G75*
G03*
X250776958Y-87364573I-684001J-1534993D01*
G01*
X250776000Y-90435000D02*
G75*
G03*
X252143042Y-90435427I684001J1534993D01*
G01*
X252995000Y-89584000D02*
G75*
G03*
X253140253Y-88871195I-1535001J683999D01*
G01*
X253140000Y-88900000D02*
G75*
G03*
X252994756Y-88216682I-1679992J1D01*
G01*
X249925000Y-88216000D02*
G75*
G03*
X249924573Y-89583042I1534993J-684001D01*
G01*
X253140000Y-83820000D02*
G75*
G03*
X253140000Y-83820000I-1680000J0D01*
G01*
%TO.C,Tweeter1*%
X151125000Y-59489000D02*
X151172000Y-59443000D01*
X160080000Y-53760000D02*
X149800000Y-53760000D01*
X160320000Y-54260000D02*
X160320000Y-53520000D01*
X160080000Y-63681000D02*
X149800000Y-63681000D01*
X160080000Y-60721000D02*
X149800000Y-60721000D01*
X153627000Y-57397000D02*
X153674000Y-57351000D01*
X160080000Y-54320000D02*
X149800000Y-54320000D01*
X160080000Y-63681000D02*
X160080000Y-53760000D01*
X151330000Y-59695000D02*
X151365000Y-59659000D01*
X149800000Y-63681000D02*
X149800000Y-53760000D01*
X153434000Y-57181000D02*
X153469000Y-57146000D01*
X160320000Y-53520000D02*
X159820000Y-53520000D01*
X160080000Y-55820000D02*
X149800000Y-55820000D01*
X157480000Y-56740000D02*
G75*
G03*
X156796682Y-56885244I-1J-1679992D01*
G01*
X159015000Y-59104000D02*
G75*
G03*
X159015427Y-57736958I-1534993J684001D01*
G01*
X158164000Y-56885000D02*
G75*
G03*
X157451195Y-56739747I-683999J-1535001D01*
G01*
X155945000Y-57736000D02*
G75*
G03*
X155944573Y-59103042I1534993J-684001D01*
G01*
X156796000Y-59955000D02*
G75*
G03*
X158163042Y-59955427I684001J1534993D01*
G01*
X154080000Y-58420000D02*
G75*
G03*
X154080000Y-58420000I-1680000J0D01*
G01*
%TO.C,C4*%
X186300000Y-54370000D02*
X186300000Y-56470000D01*
X191900000Y-68540000D02*
X233940000Y-68540000D01*
X187700000Y-68540000D02*
X189800000Y-68540000D01*
X187700000Y-48300000D02*
X187700000Y-68540000D01*
X187700000Y-48300000D02*
X189800000Y-48300000D01*
X189800000Y-48300000D02*
X190850000Y-49350000D01*
X191900000Y-48300000D02*
X233940000Y-48300000D01*
X233940000Y-48300000D02*
X233940000Y-68540000D01*
X190850000Y-67490000D02*
X191900000Y-68540000D01*
X185250000Y-55420000D02*
X187350000Y-55420000D01*
X186460000Y-58420000D02*
X187700000Y-58420000D01*
X189800000Y-68540000D02*
X190850000Y-67490000D01*
X235180000Y-58420000D02*
X233940000Y-58420000D01*
X190850000Y-49350000D02*
X191900000Y-48300000D01*
%TO.C,R1*%
X199220000Y-106680000D02*
X196840000Y-106680000D01*
X196840000Y-113050000D02*
X196840000Y-100310000D01*
X146220000Y-106680000D02*
X148600000Y-106680000D01*
X148600000Y-113050000D02*
X196840000Y-113050000D01*
X196840000Y-100310000D02*
X148600000Y-100310000D01*
X148600000Y-100310000D02*
X148600000Y-113050000D01*
%TO.C,Woofer1*%
X175560000Y-53520000D02*
X175060000Y-53520000D01*
X168867000Y-57397000D02*
X168914000Y-57351000D01*
X166570000Y-59695000D02*
X166605000Y-59659000D01*
X175320000Y-63681000D02*
X165040000Y-63681000D01*
X175320000Y-53760000D02*
X165040000Y-53760000D01*
X175320000Y-60721000D02*
X165040000Y-60721000D01*
X168674000Y-57181000D02*
X168709000Y-57146000D01*
X175320000Y-63681000D02*
X175320000Y-53760000D01*
X166365000Y-59489000D02*
X166412000Y-59443000D01*
X165040000Y-63681000D02*
X165040000Y-53760000D01*
X175560000Y-54260000D02*
X175560000Y-53520000D01*
X175320000Y-54320000D02*
X165040000Y-54320000D01*
X175320000Y-55820000D02*
X165040000Y-55820000D01*
X174255000Y-59104000D02*
G75*
G03*
X174255427Y-57736958I-1534993J684001D01*
G01*
X172720000Y-56740000D02*
G75*
G03*
X172036682Y-56885244I-1J-1679992D01*
G01*
X173404000Y-56885000D02*
G75*
G03*
X172691195Y-56739747I-683999J-1535001D01*
G01*
X171185000Y-57736000D02*
G75*
G03*
X171184573Y-59103042I1534993J-684001D01*
G01*
X172036000Y-59955000D02*
G75*
G03*
X173403042Y-59955427I684001J1534993D01*
G01*
X169320000Y-58420000D02*
G75*
G03*
X169320000Y-58420000I-1680000J0D01*
G01*
%TO.C,C3*%
X163520000Y-131080000D02*
X164420000Y-130180000D01*
X198960000Y-117840000D02*
X198960000Y-131080000D01*
X160520000Y-120960000D02*
X160520000Y-122760000D01*
X161720000Y-117840000D02*
X163520000Y-117840000D01*
X161720000Y-131080000D02*
X163520000Y-131080000D01*
X159620000Y-121860000D02*
X161420000Y-121860000D01*
X160280000Y-124460000D02*
X161720000Y-124460000D01*
X163520000Y-117840000D02*
X164420000Y-118740000D01*
X165320000Y-131080000D02*
X198960000Y-131080000D01*
X164420000Y-130180000D02*
X165320000Y-131080000D01*
X165320000Y-117840000D02*
X198960000Y-117840000D01*
X161720000Y-117840000D02*
X161720000Y-131080000D01*
X200400000Y-124460000D02*
X198960000Y-124460000D01*
X164420000Y-118740000D02*
X165320000Y-117840000D01*
%TO.C,C1*%
X246380000Y-74960000D02*
X246380000Y-73120000D01*
X242510000Y-73120000D02*
X250250000Y-73120000D01*
X250250000Y-53880000D02*
X242510000Y-53880000D01*
X250250000Y-73120000D02*
X250250000Y-53880000D01*
X242510000Y-53880000D02*
X242510000Y-73120000D01*
X246380000Y-52040000D02*
X246380000Y-53880000D01*
%TO.C,L1*%
X198900000Y-94425000D02*
X198900000Y-78285000D01*
X181272000Y-94425000D02*
X166860000Y-94425000D01*
X198900000Y-78285000D02*
X184488000Y-78285000D01*
X166860000Y-94425000D02*
X166860000Y-78285000D01*
X198900000Y-94425000D02*
X184488000Y-94425000D01*
X181272000Y-78285000D02*
X166860000Y-78285000D01*
%TO.C,L2*%
X231903333Y-93980000D02*
G75*
G03*
X231903333Y-93980000I-6863333J0D01*
G01*
X246110000Y-93980000D02*
G75*
G03*
X246110000Y-93980000I-21070000J0D01*
G01*
%TO.C,R2*%
X128250000Y-69860000D02*
X128250000Y-118100000D01*
X134620000Y-120480000D02*
X134620000Y-118100000D01*
X140990000Y-69860000D02*
X128250000Y-69860000D01*
X140990000Y-118100000D02*
X140990000Y-69860000D01*
X134620000Y-67480000D02*
X134620000Y-69860000D01*
X128250000Y-118100000D02*
X140990000Y-118100000D01*
%TD*%
M02*
